<svg version="1.1" id="logo" xmlns="http://www.w3.org/2000/svg"  width="300px" height="80px" xmlns:xlink="http://www.w3.org/1999/xlink" x="0px" y="0px" viewBox="0 0 102.01 27.66"><style type="text/css"> .st1{font-size:4.465px;}.st2{fill:#FF4E00;}.st4{font-size:10.3039px;}.st5{fill-rule:evenodd;clip-rule:evenodd;fill:#e6e9ed;}.st6{fill:url(#grad2-3_1_);}.st7{fill:url(#grad2-2_1_);}.st8{fill:url(#grad2-1_1_);}.st9{fill:url(#grad1-3_1_);}.st10{fill:url(#grad1-2_1_);}.st11{fill:url(#grad1-1_1_);}.st12{display:none;}.st13{display:inline;fill:#760B0C;}.st14{fill:#FC6103;}.st15{fill:#2FB457;}.st16{fill:#FFFFFF;}.st17,#mflame1, #mflame2{opacity:0;}#bflame1{fill: #FFCE54;}.inner-ring{fill:#e6e9ed;}.outer-ring{fill:#ccd1d9;}</style> <animateTransform attributeName="transform" attributeType="XML" dur="2s" begin="1s" type="rotate" from="0 20.159 19.435" to="240 20.159 19.435" xlink:href="#arrow" fill="freeze" id="start"/> <animate xlink:href="#ir-1" id="fill-ir-1" attributeName="fill" to="#2FB457" begin="1s" dur="1s" fill="freeze"/> <animate attributeName="opacity" xlink:href="#mflame2" to="1" begin="1s" dur="1s" fill="freeze"/> <animate attributeName="fill" xlink:href="#bflame2" begin="2s" to="#FFCE54" dur="1s" fill="freeze"> </animate> <animate attributeName="fill" xlink:href="#bflame2" begin="3s" to="#fc5b05" dur="0.5s" fill="freeze"> </animate> <animate attributeName="fill" xlink:href="#bflame1" begin="3s" to="#FFCE54" dur="0.5s" fill="freeze"> </animate> <linearGradient id="grad2-1_1_" gradientUnits="userSpaceOnUse" x1="-22.8032" y1="33.6986" x2="-23.1099" y2="18.6633" gradientTransform="matrix(0.7071 -0.7071 0.7071 0.7071 16.8009 -28.777)"> <stop offset="0" style="stop-color:#e6e9ed"> <animate attributeName="stop-color" values="#e6e9ed; #FFCE54" begin="2s" dur="1s" fill="freeze"> </animate> <animate attributeName="stop-color" values="#FFCE54; #fc6400" begin="3s" dur="0.5s" fill="freeze"> </animate> </stop> <stop offset="1" style="stop-color:#ccd1d9"> <animate attributeName="stop-color" begin="2s" values="#ccd1d9; #fcbb42" dur="1s" fill="freeze"> </animate> <animate attributeName="stop-color" values="#fcbb42; #CB181E" begin="3s" dur="0.5s" fill="freeze"> </animate> </stop> </linearGradient> <linearGradient id="grad2-2_1_" gradientUnits="userSpaceOnUse" x1="-39.125" y1="32.7977" x2="-42.1815" y2="22.0244" gradientTransform="matrix(0.7071 -0.7071 0.7071 0.7071 16.8009 -28.777)"> <stop offset="0" style="stop-color:#e6e9ed"> <animate attributeName="stop-color" values="#e6e9ed; #FFCE54" begin="2s" dur="1s" fill="freeze"> </animate> <animate attributeName="stop-color" values="#FFCE54; #fc6400" begin="3s" dur="0.5s" fill="freeze"> </animate> </stop> <stop offset="1" style="stop-color:#ff4300"> <animate attributeName="stop-color" begin="2s" values="#ccd1d9; #fcbb42" dur="1s" fill="freeze"> </animate> <animate attributeName="stop-color" values="#fcbb42; #CB181E" begin="3s" dur="0.5s" fill="freeze"> </animate> </stop> </linearGradient> <linearGradient id="grad2-3_1_" gradientUnits="userSpaceOnUse" x1="-34.3742" y1="25.8028" x2="-36.1392" y2="12.4007" gradientTransform="matrix(0.7071 -0.7071 0.7071 0.7071 16.8009 -28.777)"> <stop offset="0" style="stop-color:#e6e9ed"> <animate attributeName="stop-color" values="#e6e9ed; #FFCE54" begin="2s" dur="1s" fill="freeze"> </animate> <animate attributeName="stop-color" values="#FFCE54; #fc6400" begin="3s" dur="0.5s" fill="freeze"> </animate> </stop> <stop offset="1" style="stop-color:#ff4300"> <animate attributeName="stop-color" begin="2s" values="#ff4300; #fcbb42" dur="1s" fill="freeze"> </animate> <animate attributeName="stop-color" values="#fcbb42; #CB181E" begin="3s" dur="0.5s" fill="freeze"> </animate> </stop> </linearGradient> <animate attributeName="opacity" xlink:href="#mflame1" from="0" to="1" begin="2s" dur="1s" fill="freeze"/> <linearGradient id="grad1-1_1_" gradientUnits="userSpaceOnUse" x1="60.5519" y1="32.9915" x2="60.2452" y2="17.9562" gradientTransform="matrix(-0.7345 0.7345 0.7071 0.7071 32.2498 -44.2259)"> <stop offset="0" style="stop-color:#e6e9ed"> <animate attributeName="stop-color" values="#e6e9ed; #FFCE54" begin="2s" dur="1s" fill="freeze"> </animate> <animate attributeName="stop-color" values="#FFCE54; #fc6400" begin="3s" dur="0.5s" fill="freeze"> </animate> </stop> <stop offset="1" style="stop-color:#ccd1d9"> <animate attributeName="stop-color" begin="2s" values="#ccd1d9; #fcbb42" dur="1s" fill="freeze"> </animate> <animate attributeName="stop-color" values="#fcbb42; #CB181E" begin="3s" dur="0.5s" fill="freeze"> </animate> </stop> </linearGradient> <linearGradient id="grad1-2_1_" gradientUnits="userSpaceOnUse" x1="44.2301" y1="32.0906" x2="41.1735" y2="21.3173" gradientTransform="matrix(-0.7345 0.7345 0.7071 0.7071 32.2498 -44.2259)"> <stop offset="0" style="stop-color:#e6e9ed"> <animate attributeName="stop-color" values="#e6e9ed; #FFCE54" begin="2s" dur="1s" fill="freeze"> </animate> <animate attributeName="stop-color" values="#FFCE54; #fc6400" begin="3s" dur="0.5s" fill="freeze"> </animate> </stop> <stop offset="1" style="stop-color:#ccd1d9"> <animate attributeName="stop-color" begin="2s" values="#ccd1d9; #fcbb42" dur="1s" fill="freeze"> </animate> <animate attributeName="stop-color" values="#fcbb42; #CB181E" begin="3s" dur="0.5s" fill="freeze"> </animate> </stop> </linearGradient> <linearGradient id="grad1-3_1_" gradientUnits="userSpaceOnUse" x1="48.9809" y1="25.0957" x2="47.2159" y2="11.6937" gradientTransform="matrix(-0.7345 0.7345 0.7071 0.7071 32.2498 -44.2259)"> <stop offset="0" style="stop-color:#e6e9ed"> <animate attributeName="stop-color" values="#e6e9ed; #FFCE54" begin="2s" dur="1s" fill="freeze"> </animate> <animate attributeName="stop-color" values="#FFCE54; #fc6400" begin="3s" dur="0.5s" fill="freeze"> </animate> </stop> <stop offset="1" style="stop-color:#ccd1d9"> <animate attributeName="stop-color" begin="2s" values="#ccd1d9; #fcbb42" dur="1s" fill="freeze"> </animate> <animate attributeName="stop-color" values="#fcbb42; #CB181E" begin="3s" dur="0.5s" fill="freeze"> </animate> </stop> </linearGradient> <animate xlink:href="#ir-2" id="fill-ir-2" attributeName="fill" from="#e6e9ed" to="#ffce54" begin="2s" dur="1s" fill="freeze"/> <animate xlink:href="#ir-3" id="fill-ir-3" attributeName="fill" from="#e6e9ed" to="#ED1C24" begin="3s" dur="0.5s" fill="freeze"/> <animate xlink:href="#or-1" attributeName="fill" from="#e6e9ed" to="#2FB457" begin="1s" dur="1s" fill="freeze"/> <animate xlink:href="#or-1" attributeName="fill" from="#e6e9ed" to="#fcbb42" begin="2s" dur="1s" fill="freeze"/> <animate xlink:href="#or-1" attributeName="fill" from="#fcbb42" to="#ED1C24" begin="3s" dur="0.3s" fill="freeze"/> <animate xlink:href="#or-2" attributeName="fill" from="#e6e9ed" to="#2FB457" begin="1s" dur="1s" fill="freeze"/> <animate xlink:href="#or-2" attributeName="fill" from="#e6e9ed" to="#fcbb42" begin="2s" dur="1s" fill="freeze"/> <animate xlink:href="#or-2" attributeName="fill" from="#fcbb42" to="#ED1C24" begin="3s" dur="0.3s" fill="freeze"/> <animate xlink:href="#or-3" attributeName="fill" from="#e6e9ed" to="#2FB457" begin="1s" dur="1s" fill="freeze"/> <animate xlink:href="#or-3" attributeName="fill" from="#e6e9ed" to="#fcbb42" begin="2s" dur="1s" fill="freeze"/> <animate xlink:href="#or-3" attributeName="fill" from="#fcbb42" to="#ED1C24" begin="3s" dur="0.3s" fill="freeze"/> <animateTransform id="ani-end" attributeName="transform" attributeType="XML" dur="2s" begin="start.end;ani-end.end+30s" type="rotate" values="240 20.159 19.435; 360 20.159 19.435; 350 20.159 19.435; 360 20.159 19.435; 350 20.159 19.435; 360 20.159 19.435; 350 20.159 19.435; 360 20.159 19.435; 230 20.159 19.435; 245 20.159 19.435; 240 20.159 19.435" keyTimes="0; 0.1;0.15;0.20;0.25;0.30;0.35;0.40;0.8; 0.9; 1" xlink:href="#arrow"/> <g id="slogan"> <path d="M29,23.94h0.77v0.79h0.72v-0.79h0.77v2.22h-0.77v-0.81h-0.72v0.81H29V23.94z"/> <path d="M31.82,23.94h0.73v1.27l0.82-1.27h0.73v2.22h-0.73v-1.27l-0.82,1.27h-0.73V23.94z"/> <path d="M34.65,25.42c0,0,0.38,0.23,0.78,0.22c0.26,0,0.39-0.07,0.39-0.2c0-0.09-0.06-0.13-0.2-0.13h-0.65v-0.53h0.6c0.13,0,0.2-0.05,0.2-0.15c0-0.11-0.08-0.17-0.34-0.17c-0.4,0-0.75,0.17-0.75,0.19l-0.15-0.56c0-0.02,0.46-0.2,0.97-0.2c0.72,0,1.02,0.26,1.02,0.67c0,0.21-0.1,0.38-0.3,0.47c0.23,0.09,0.35,0.27,0.35,0.5c0,0.42-0.32,0.68-1.07,0.68c-0.53,0-1.01-0.21-1.01-0.23L34.65,25.42z"/> <path d="M37.04,23.94h0.77v0.8h0.21l0.5-0.8h0.86L38.62,25l0.81,1.17h-0.9l-0.52-0.84h-0.2v0.84h-0.77V23.94z"/> <path d="M39.72,23.94h0.73v1.27l0.82-1.27h0.73v2.22h-0.73v-1.27l-0.82,1.27h-0.73V23.94z"/> <path d="M44.77,24.96c0,0.14-0.02,0.26-0.02,0.28h-1.54c0.08,0.24,0.33,0.38,0.67,0.38c0.38,0,0.69-0.18,0.69-0.2L44.72,26c0,0.02-0.38,0.22-0.96,0.22c-0.84,0-1.33-0.47-1.33-1.19c0-0.67,0.5-1.15,1.21-1.15C44.34,23.89,44.77,24.32,44.77,24.96z M44.07,24.82l-0.01-0.06c-0.03-0.18-0.17-0.32-0.4-0.32c-0.23,0-0.41,0.13-0.46,0.38H44.07z"/> <path d="M46.17,23.94h0.77v1.6h0.62v-1.6h0.77v1.59h0.34v1.18h-0.68v-0.55h-1.81V23.94z"/> <path d="M51.19,24.96c0,0.14-0.02,0.26-0.02,0.28h-1.54c0.08,0.24,0.33,0.38,0.67,0.38c0.38,0,0.69-0.18,0.69-0.2L51.14,26c0,0.02-0.38,0.22-0.96,0.22c-0.84,0-1.33-0.47-1.33-1.19c0-0.67,0.5-1.15,1.21-1.15C50.76,23.89,51.19,24.32,51.19,24.96z M50.49,24.82l-0.01-0.06c-0.03-0.18-0.17-0.32-0.4-0.32c-0.23,0-0.41,0.13-0.46,0.38H50.49z"/> <path d="M51.63,23.94h0.77v0.79h0.72v-0.79h0.77v2.22h-0.77v-0.81H52.4v0.81h-0.77V23.94z"/> <path d="M54.45,23.94h0.77v0.63h0.38c0.57,0,0.91,0.3,0.91,0.8c0,0.49-0.34,0.79-0.91,0.79h-1.15V23.94z M55.43,25.61c0.22,0,0.32-0.08,0.32-0.24c0-0.16-0.11-0.24-0.32-0.24h-0.21v0.48H55.43z M56.73,23.94h0.77v2.22h-0.77V23.94z"/> <path d="M59.02,23.94h0.77v0.8H60l0.5-0.8h0.86L60.6,25l0.81,1.17h-0.9l-0.52-0.84h-0.2v0.84h-0.77V23.94z"/> <path d="M62.27,24.77c0.44,0,0.75,0.25,0.75,0.28v-0.13c0-0.29-0.17-0.42-0.55-0.42c-0.32,0-0.61,0.13-0.64,0.15l-0.14-0.59c0-0.02,0.47-0.18,0.96-0.18c0.73,0,1.12,0.36,1.12,1.02v1.26h-0.74v-0.25c0,0.03-0.3,0.3-0.75,0.3c-0.45,0-0.74-0.28-0.74-0.72C61.53,25.05,61.82,24.77,62.27,24.77z M63.02,25.43c-0.14-0.1-0.25-0.18-0.47-0.18c-0.16,0-0.26,0.09-0.26,0.23c0,0.14,0.1,0.24,0.26,0.24c0.21,0,0.32-0.08,0.47-0.19V25.43z"/> <path d="M64.7,25l-0.65-1.06h0.81l0.43,0.8h0.2v-0.8h0.74v0.8h0.2l0.43-0.8h0.81L67.03,25l0.69,1.16h-0.84l-0.44-0.84h-0.19v0.84h-0.74v-0.84H65.3l-0.44,0.84h-0.85L64.7,25z"/> <path d="M67.81,25.57h0.25c0,0.02,0.24-0.2,0.25-0.66l0.07-0.97h1.9v1.62h0.33v1.14h-0.68v-0.54h-1.46v0.54h-0.68V25.57z M69.53,25.57v-1.02h-0.47l-0.02,0.37c-0.02,0.44-0.24,0.67-0.24,0.65H69.53z"/> <path d="M71.01,23.94h0.77v0.63h0.38c0.57,0,0.91,0.3,0.91,0.8c0,0.49-0.34,0.79-0.91,0.79h-1.15V23.94z M71.99,25.61c0.22,0,0.32-0.08,0.32-0.24c0-0.16-0.11-0.24-0.32-0.24h-0.21v0.48H71.99z M73.29,23.94h0.77v2.22h-0.77V23.94z"/> <path d="M74.63,23.94h0.73v1.27l0.82-1.27h0.73v2.22h-0.73v-1.27l-0.82,1.27h-0.73V23.94z M75.51,22.89c0,0.19,0.09,0.29,0.26,0.29c0.17,0,0.26-0.1,0.26-0.29h0.58c-0.05,0.49-0.33,0.73-0.85,0.73c-0.5,0-0.79-0.25-0.84-0.73H75.51z"/> <path d="M78.22,25.57h0.25c0,0.02,0.24-0.2,0.25-0.66l0.07-0.97h1.9v1.62h0.33v1.14h-0.68v-0.54H78.9v0.54h-0.68V25.57z M79.95,25.57v-1.02h-0.47l-0.02,0.37c-0.02,0.44-0.24,0.67-0.24,0.65H79.95z"/> <path d="M83.58,24.96c0,0.14-0.02,0.26-0.02,0.28h-1.54c0.08,0.24,0.33,0.38,0.67,0.38c0.38,0,0.69-0.18,0.69-0.2L83.53,26c0,0.02-0.38,0.22-0.96,0.22c-0.84,0-1.33-0.47-1.33-1.19c0-0.67,0.5-1.15,1.21-1.15C83.14,23.89,83.58,24.32,83.58,24.96z M82.87,24.82l-0.01-0.06c-0.03-0.18-0.17-0.32-0.4-0.32c-0.23,0-0.41,0.13-0.46,0.38H82.87z"/> <path d="M84.02,23.94h0.77v0.79h0.72v-0.79h0.77v2.22H85.5v-0.81h-0.72v0.81h-0.77V23.94z"/> <path d="M86.84,23.94h0.77v0.61h0.54c0.57,0,0.91,0.3,0.91,0.8s-0.34,0.8-0.91,0.8h-1.31V23.94z M87.99,25.6c0.21,0,0.31-0.08,0.31-0.24s-0.1-0.24-0.31-0.24h-0.38v0.48H87.99z"/> </g> <g id="mtext"> <path class="st2" d="M34.98,15.49l-4.02,7.15h-1.43l-1.21-7.15h1.97l0.67,3.58l1.96-3.58H34.98z"/> <path class="st2" d="M34.75,20.76h2.41h2.57l-0.34,1.91h-4.98L34.75,20.76z M38.51,18.1l-0.33,1.91h-0.89h-2.41l0.79-4.5h4.98l-0.34,1.91h-3.06l-0.12,0.69H38.51z"/> <path class="st2" d="M46.62,22.62H44.4l-0.67-1.69H42.7l-1.57-1.91h2.35h0.9c0.08,0,0.16-0.01,0.23-0.04c0.07-0.02,0.14-0.05,0.21-0.09c0.14-0.08,0.25-0.18,0.34-0.3c0.09-0.13,0.15-0.26,0.17-0.41c0.03-0.22-0.01-0.42-0.14-0.58c-0.13-0.16-0.3-0.25-0.53-0.25h-0.9h-0.44h-1.91l0.33-1.91h3.26c0.38,0,0.72,0.07,1.03,0.22c0.31,0.14,0.56,0.34,0.76,0.59c0.2,0.25,0.35,0.54,0.43,0.87c0.09,0.33,0.09,0.68,0.03,1.06c-0.04,0.22-0.11,0.43-0.21,0.64c-0.1,0.21-0.22,0.41-0.36,0.6c-0.14,0.19-0.31,0.37-0.48,0.53s-0.37,0.31-0.57,0.44L46.62,22.62z"/> <path class="st2" d="M54.02,21.6l-0.2,0.17c-0.42,0.34-0.87,0.61-1.35,0.79c-0.48,0.18-0.97,0.27-1.46,0.27c-0.52,0-0.98-0.1-1.41-0.3c-0.42-0.2-0.77-0.47-1.06-0.81s-0.48-0.74-0.6-1.2s-0.13-0.94-0.04-1.46c0.09-0.49,0.26-0.96,0.51-1.39c0.25-0.43,0.56-0.82,0.92-1.15l0.87,1.79c-0.08,0.12-0.14,0.24-0.19,0.36c-0.05,0.12-0.09,0.25-0.11,0.39c-0.04,0.24-0.03,0.47,0.02,0.69c0.06,0.22,0.15,0.4,0.28,0.56s0.3,0.28,0.49,0.38s0.42,0.14,0.66,0.14c0.24,0,0.48-0.05,0.72-0.14c0.24-0.09,0.46-0.22,0.65-0.4l0.25-0.22L54.02,21.6z M50.93,15.55c0.45-0.16,0.92-0.25,1.4-0.25c0.45,0,0.88,0.08,1.28,0.23c0.4,0.15,0.75,0.38,1.05,0.69l0.14,0.19l-1.57,1.5l-0.15-0.17c-0.3-0.29-0.67-0.43-1.1-0.43c-0.03,0-0.07,0-0.1,0c-0.03,0-0.07,0-0.1,0.01L50.93,15.55z"/> <path class="st2" d="M58.86,20.74l-0.33,1.91h-3.99l1.26-7.17h1.91l-0.93,5.26H58.86z"/> <path class="st2" d="M64.09,15.36c0.15,0,0.3,0.01,0.44,0.03c-0.37,0.17-0.72,0.39-1.05,0.64s-0.62,0.54-0.87,0.86c-0.25,0.32-0.47,0.65-0.64,1.01c-0.17,0.36-0.29,0.73-0.35,1.11c-0.08,0.41-0.09,0.8-0.03,1.18c0.06,0.38,0.17,0.74,0.33,1.07c0.17,0.33,0.38,0.63,0.65,0.89c0.27,0.26,0.59,0.48,0.96,0.64c-0.24,0.05-0.5,0.07-0.77,0.07c-0.52,0-0.98-0.1-1.41-0.29c-0.42-0.2-0.77-0.46-1.06-0.8s-0.48-0.74-0.6-1.2s-0.13-0.94-0.04-1.46c0.09-0.52,0.27-1.01,0.55-1.47c0.28-0.46,0.62-0.85,1.02-1.2c0.4-0.34,0.85-0.61,1.34-0.8S63.58,15.36,64.09,15.36z M63.74,17.34c-0.13,0-0.27,0.02-0.42,0.05c0.32-0.41,0.71-0.74,1.16-1s0.92-0.44,1.41-0.53c0.52,0.32,0.89,0.77,1.13,1.34c0.24,0.57,0.3,1.21,0.18,1.92c-0.12,0.65-0.37,1.24-0.76,1.77c-0.39,0.54-0.86,0.98-1.42,1.32c-0.47-0.05-0.9-0.2-1.27-0.43c-0.37-0.23-0.67-0.53-0.9-0.91c0.05,0.01,0.09,0.01,0.14,0.01c0.04,0,0.09,0.01,0.13,0.01c0.25,0,0.49-0.05,0.72-0.14c0.23-0.09,0.44-0.22,0.63-0.38s0.35-0.35,0.48-0.56s0.22-0.44,0.26-0.69s0.03-0.48-0.02-0.7c-0.06-0.22-0.15-0.41-0.28-0.57c-0.13-0.16-0.3-0.29-0.5-0.38S63.99,17.34,63.74,17.34z"/> <path class="st2" d="M73.75,21.6l-0.2,0.17c-0.42,0.34-0.87,0.61-1.35,0.79c-0.48,0.18-0.97,0.27-1.46,0.27c-0.52,0-0.98-0.1-1.41-0.3c-0.42-0.2-0.77-0.47-1.06-0.81s-0.48-0.74-0.6-1.2s-0.13-0.94-0.04-1.46c0.09-0.49,0.26-0.96,0.51-1.39c0.25-0.43,0.56-0.82,0.92-1.15l0.87,1.79c-0.08,0.12-0.14,0.24-0.19,0.36c-0.05,0.12-0.09,0.25-0.11,0.39c-0.04,0.24-0.03,0.47,0.02,0.69c0.05,0.22,0.15,0.4,0.28,0.56s0.29,0.28,0.49,0.38s0.42,0.14,0.66,0.14c0.24,0,0.48-0.05,0.72-0.14s0.46-0.22,0.65-0.4l0.25-0.22L73.75,21.6z M70.66,15.55c0.45-0.16,0.92-0.25,1.4-0.25c0.45,0,0.88,0.08,1.28,0.23c0.4,0.15,0.75,0.38,1.05,0.69l0.14,0.19l-1.57,1.5l-0.15-0.17c-0.3-0.29-0.67-0.43-1.1-0.43c-0.04,0-0.07,0-0.1,0s-0.07,0-0.1,0.01L70.66,15.55z"/> <path class="st2" d="M81.31,22.66h-2.45l-1.52-2.43l-2.81,2.42l1.24-7.16h1.9l-0.42,2.39l2.44-2.39h2.49l-3.32,3.26L81.31,22.66z"/> <path class="st2" d="M82.43,20.76h2.41h2.57l-0.34,1.91h-4.98L82.43,20.76z M86.19,18.1l-0.33,1.91h-0.89h-2.41l0.79-4.5h4.98L88,17.41h-3.06l-0.12,0.69H86.19z"/> <path class="st2" d="M94.3,22.62h-2.21l-0.67-1.69h-1.03l-1.57-1.91h2.35h0.9c0.08,0,0.16-0.01,0.23-0.04s0.14-0.05,0.21-0.09c0.14-0.08,0.25-0.18,0.34-0.3c0.09-0.13,0.15-0.26,0.17-0.41c0.03-0.22-0.01-0.42-0.14-0.58c-0.13-0.16-0.3-0.25-0.53-0.25h-0.9h-0.44h-1.91l0.33-1.91h3.26c0.38,0,0.72,0.07,1.03,0.22s0.56,0.34,0.76,0.59c0.2,0.25,0.35,0.54,0.43,0.87c0.09,0.33,0.09,0.68,0.03,1.06c-0.04,0.22-0.11,0.43-0.21,0.64c-0.1,0.21-0.22,0.41-0.36,0.6c-0.14,0.19-0.31,0.37-0.48,0.53s-0.37,0.31-0.57,0.44L94.3,22.62z"/> <path class="st2" d="M99.07,18.14c0.29,0.05,0.59,0.12,0.9,0.19c0.3,0.07,0.57,0.19,0.8,0.34c0.23,0.15,0.4,0.37,0.52,0.64c0.12,0.27,0.13,0.63,0.05,1.08c-0.13,0.76-0.5,1.34-1.1,1.76c-0.6,0.42-1.38,0.62-2.33,0.62c-0.34,0-0.68-0.02-1.01-0.06c-0.33-0.04-0.63-0.08-0.91-0.14c-0.27-0.06-0.51-0.11-0.71-0.18c-0.2-0.06-0.33-0.11-0.4-0.15l1.06-1.82c0.07,0.05,0.19,0.09,0.36,0.14c0.17,0.04,0.37,0.09,0.58,0.12c0.22,0.04,0.44,0.07,0.68,0.09s0.47,0.03,0.69,0.03c0.37,0,0.65-0.04,0.82-0.11s0.28-0.16,0.3-0.26c0.01-0.08,0-0.14-0.06-0.19c-0.05-0.05-0.12-0.09-0.2-0.12c-0.08-0.03-0.18-0.06-0.28-0.08c-0.1-0.02-0.2-0.04-0.3-0.06c-0.3-0.07-0.62-0.16-0.96-0.26c-0.34-0.1-0.64-0.24-0.91-0.42c-0.27-0.18-0.48-0.4-0.63-0.66c-0.15-0.26-0.19-0.59-0.12-0.98c0.05-0.32,0.17-0.62,0.34-0.89c0.18-0.27,0.4-0.51,0.67-0.71s0.58-0.36,0.94-0.48s0.74-0.19,1.17-0.21c0.27,0,0.54,0.01,0.82,0.03c0.28,0.02,0.55,0.05,0.81,0.08c0.26,0.03,0.5,0.07,0.73,0.11c0.23,0.04,0.43,0.09,0.6,0.13l-0.98,1.7c-0.21-0.05-0.48-0.12-0.8-0.19s-0.64-0.11-0.97-0.13c-0.26,0-0.47,0.02-0.64,0.05c-0.17,0.03-0.3,0.08-0.4,0.13c-0.1,0.06-0.18,0.12-0.22,0.19c-0.04,0.07-0.07,0.14-0.09,0.21c-0.01,0.06,0.01,0.12,0.09,0.17s0.17,0.09,0.28,0.12s0.24,0.07,0.38,0.1C98.79,18.08,98.93,18.11,99.07,18.14z"/> </g> <g id="mflame1"> <path id="bflame1" class="st5" d="M14.5,3.47c3.75,2.55,4.08,5.15,2.36,5.44C8.45,10.34,12.97-2.07,3.25,1.34c3.41,0.65,3.81,3.13,3.09,5.44c-0.95,3.03,0.73,3.73,1.68,5.33c0.93,1.57,0.35,3.55-1.03,3.85c-2.27,0.49-0.4-3.13-5.68-3.82c3.53,2.01,2.12,6.85,7,11.27c2.13,1.93,4.45,2.82,7.3,2.63c-0.6-0.33-1.15-0.75-1.66-1.26c-3.06-3.06-2.96-8.11,0.21-11.29c3.18-3.18,8.23-3.27,11.29-0.21c0.54,0.54,0.98,1.14,1.32,1.78C27.14,8.61,22.42,4.7,14.5,3.47z"/> <path id="sflame1-2" class="st5" d="M4.28,12.27C3.61,7.87,2.36,10.57,0,8.56C1.04,11.07,2.94,10.08,4.28,12.27z"/> <path id="sflame1-1" class="st5" d="M15,7.14c-2.12-2.11,0-4.46-4.26-5.66C14.17,3.56,11.27,5.44,15,7.14L15,7.14z"/> <path id="grad1-3" class="st9" d="M16.86,8.92c0.41-0.07,0.71-0.27,0.86-0.57C14.5,15,9.72,12.18,9.11,7.59c-0.53-4-1.07-6.44-5.85-6.25C12.97-2.07,8.45,10.34,16.86,8.92z"/> <path id="grad1-2" class="st10" d="M14.5,3.47c7.92,1.23,12.65,5.14,12.27,11.59c-0.34-0.64-0.78-1.24-1.32-1.78c-1.01-1.01-2.25-1.68-3.56-2C20.93,6.9,18.14,5.45,14.5,3.47z"/> <path id="grad1-1" class="st11" d="M8.31,23.4c-4.88-4.43-3.46-9.26-7-11.27c4.51,1.54,4.16,8.69,10.81,9.72c0.6,1.78,1.85,3.28,3.48,4.19C12.76,26.22,10.43,25.33,8.31,23.4z"/> </g> <g id="mflame2"> <path id="bflame2" class="st5" d="M4.84,14.14c2.57,3.73,5.13,4.1,5.39,2.42c1.24-8.23-10.85-4.03-7.69-13.5c0.7,3.36,3.14,3.8,5.39,3.13c2.96-0.87,3.67,0.79,5.26,1.74c1.56,0.94,3.49,0.41,3.76-0.93c0.44-2.22-3.08-0.46-3.86-5.65c2.04,3.51,6.76,2.2,11.19,7.08c1.93,2.12,2.85,4.42,2.72,7.21c-0.34-0.59-0.76-1.15-1.26-1.65c-3.06-3.06-8.01-3.06-11.07,0c-3.06,3.06-3.06,8.01,0,11.07c0.54,0.54,1.14,0.98,1.77,1.33C10.12,26.64,6.19,21.93,4.84,14.14z"/> <path id="sflame2-2" class="st5" d="M13.28,4.27C8.95,3.52,11.58,2.35,9.56,0C12.05,1.07,11.11,2.91,13.28,4.27z"/> <path id="sflame2-1" class="st5" d="M8.45,14.69c-2.11-2.12-4.37-0.08-5.64-4.28C4.92,13.81,6.71,11,8.45,14.69L8.45,14.69z"/> <path id="grad2-3" class="st6" d="M10.22,16.55c-0.06,0.4-0.25,0.69-0.55,0.84c6.47-3.04,3.62-7.79-0.9-8.47c-3.94-0.6-6.34-1.17-6.24-5.86C-0.63,12.53,11.46,8.33,10.22,16.55z"/> <path id="grad2-2" class="st7" d="M4.84,14.14c1.36,7.79,5.28,12.51,11.6,12.25c-0.64-0.35-1.23-0.79-1.77-1.33c-1.01-1.01-1.69-2.24-2.03-3.53C8.32,20.51,6.85,17.74,4.84,14.14z"/> <path id="grad2-1" class="st8" d="M24.28,8.43c-4.43-4.87-9.15-3.57-11.19-7.08c1.6,4.46,8.6,4.24,9.74,10.79c1.76,0.62,3.25,1.87,4.18,3.49C27.13,12.85,26.21,10.55,24.28,8.43z"/> </g> <g id="gauge"> <g> <g class="st12"> <circle class="st13" cx="20.15" cy="19.45" r="1.99"/> </g> <g> <path id="ir-3" class="st2 inner-ring" d="M17.61,17.63c0.19,0.11,0.43,0.08,0.58-0.08c0.5-0.51,1.19-0.83,1.96-0.83c0.77,0,1.46,0.32,1.96,0.83c0.15,0.16,0.39,0.19,0.58,0.08l1.14-0.66c-0.8-1.18-2.15-1.95-3.68-1.95c-1.53,0-2.88,0.78-3.68,1.95L17.61,17.63z"/> <path id="ir-2" class="st14 inner-ring" d="M19.83,22.59c0-0.22-0.14-0.41-0.35-0.47c-1.19-0.3-2.07-1.38-2.07-2.66c0-0.26,0.04-0.5,0.1-0.74c0.06-0.21-0.03-0.44-0.22-0.55l-1.14-0.66c-0.29,0.59-0.45,1.25-0.45,1.94c0,2.35,1.82,4.27,4.13,4.44V22.59z"/> <path id="ir-1" class="st15 inner-ring" d="M23.02,18.18c-0.19,0.11-0.28,0.33-0.22,0.55c0.07,0.24,0.1,0.48,0.1,0.74c0,1.28-0.88,2.36-2.07,2.66c-0.21,0.05-0.35,0.25-0.35,0.47v1.31c2.3-0.17,4.13-2.09,4.13-4.44c0-0.7-0.16-1.35-0.45-1.94L23.02,18.18z"/> </g> <g> <path id="or-1" class="st2 outer-ring" d="M20.47,13.86c0,0.24,0.18,0.44,0.42,0.48c2.5,0.36,4.42,2.51,4.42,5.11c0,0.67-0.13,1.32-0.37,1.91c-0.09,0.23-0.01,0.48,0.2,0.6l1.1,0.64c0.49-0.94,0.77-2.02,0.77-3.15c0-3.68-2.91-6.69-6.55-6.86V13.86z"/> <path id="or-2" class="st2 outer-ring" d="M24.83,22.52c-0.21-0.12-0.47-0.07-0.62,0.12c-0.95,1.2-2.41,1.97-4.05,1.97s-3.11-0.77-4.05-1.97c-0.15-0.19-0.41-0.24-0.62-0.12l-1.1,0.64c1.22,1.9,3.36,3.16,5.78,3.16s4.56-1.26,5.78-3.16L24.83,22.52z"/> <path id="or-3" class="st2 outer-ring" d="M15.15,21.96c0.21-0.12,0.29-0.38,0.2-0.6c-0.24-0.59-0.37-1.24-0.37-1.91c0-2.6,1.93-4.75,4.42-5.11c0.24-0.03,0.42-0.24,0.42-0.48v-1.27c-3.64,0.17-6.55,3.18-6.55,6.86c0,1.14,0.28,2.21,0.77,3.15L15.15,21.96z"/> </g> </g> <g id="arrow"> <g id="arrowvisible"> <path d="M20.19,21.02c-0.23,0-0.46-0.05-0.67-0.15c-0.64-0.29-1-0.97-0.9-1.67c0.14-0.79,0.79-1.34,1.56-1.34c0.06,0,0.11,0,0.17,0.01l5.04-2.37c0.11-0.04,0.2-0.05,0.28-0.05c0.19,0,0.37,0.07,0.51,0.19c0.13,0.13,0.22,0.28,0.25,0.44c0.01,0.09,0.03,0.19,0.01,0.3c-0.03,0.19-0.13,0.35-0.29,0.48l-4.54,3.26C21.36,20.67,20.81,21.02,20.19,21.02z"/> <path class="st16" d="M25.67,15.69c0.14,0,0.26,0.05,0.35,0.13c0.09,0.08,0.15,0.18,0.17,0.3c0.01,0.07,0.02,0.14,0.01,0.2c-0.02,0.12-0.09,0.23-0.2,0.32l-1.08,0.78l-3.5,2.52c-0.2,0.5-0.7,0.82-1.23,0.82c-0.19,0-0.38-0.04-0.57-0.13c-0.53-0.24-0.84-0.82-0.75-1.4c0-0.01,0-0.02,0.01-0.03c0.12-0.67,0.68-1.1,1.3-1.1c0.07,0,0.14,0.01,0.21,0.02l3.82-1.8l1.29-0.6C25.56,15.7,25.61,15.69,25.67,15.69 M25.67,15.19c-0.11,0-0.22,0.02-0.33,0.05l-0.03,0.01l-0.03,0.01L24,15.87l-3.7,1.74c-0.04,0-0.09,0-0.13,0c-0.89,0-1.64,0.64-1.8,1.51c-0.13,0.85,0.29,1.64,1.03,1.98c0.25,0.11,0.51,0.17,0.78,0.17c0.69,0,1.32-0.38,1.63-0.99l3.39-2.44l1.08-0.78c0.23-0.18,0.36-0.39,0.4-0.64c0.03-0.15,0.01-0.27-0.01-0.36c-0.05-0.24-0.16-0.43-0.32-0.59C26.16,15.29,25.92,15.19,25.67,15.19L25.67,15.19z"/> </g> <g id="arrowhidden" class="st17"> <path d="M14.65,23.43c-0.19,0-0.37-0.07-0.51-0.19c-0.14-0.13-0.22-0.27-0.25-0.44c-0.01-0.09-0.03-0.19-0.01-0.3c0.03-0.19,0.14-0.35,0.3-0.48l4.54-3.26c0.26-0.55,0.81-0.91,1.43-0.91c0.23,0,0.46,0.05,0.68,0.15c0.64,0.29,1,0.97,0.9,1.67c-0.14,0.79-0.79,1.34-1.56,1.34c-0.06,0-0.12,0-0.17-0.01l-5.04,2.37C14.82,23.41,14.73,23.43,14.65,23.43z"/> <path class="st16" d="M20.13,18.1c0.19,0,0.38,0.04,0.57,0.13c0.53,0.24,0.84,0.82,0.75,1.4c0,0.01,0,0.02-0.01,0.03c-0.12,0.67-0.68,1.1-1.3,1.1c-0.07,0-0.14-0.01-0.21-0.02l-3.82,1.8l-1.29,0.6c-0.06,0.02-0.12,0.03-0.17,0.03c-0.14,0-0.26-0.05-0.35-0.13c-0.09-0.08-0.15-0.18-0.17-0.3c-0.01-0.07-0.02-0.14-0.01-0.2c0.02-0.12,0.09-0.23,0.2-0.32l1.08-0.78l3.5-2.52C19.11,18.42,19.6,18.1,20.13,18.1 M20.13,17.6c-0.69,0-1.32,0.38-1.63,0.99l-3.39,2.44l-1.08,0.78c-0.23,0.18-0.36,0.39-0.4,0.64c-0.03,0.14-0.01,0.27,0.01,0.36c0.05,0.24,0.16,0.43,0.32,0.59c0.2,0.18,0.44,0.27,0.69,0.27c0.11,0,0.22-0.02,0.33-0.05L15,23.61l0.03-0.01l1.29-0.6l3.7-1.74c0.04,0,0.09,0,0.13,0c0.89,0,1.64-0.64,1.8-1.51c0.13-0.85-0.29-1.64-1.03-1.98C20.66,17.66,20.4,17.6,20.13,17.6L20.13,17.6z"/> </g> </g> </g></svg>